<svg xmlns="http://www.w3.org/2000/svg" width="32" height="32" fill="none"><path fill="#070707" d="M29 17.5H5V6.25a3.2 3.2 0 0 1 .945-2.28l.025-.025a3.23 3.23 0 0 1 3.662-.636 4.944 4.944 0 0 0 .736 6.04l.685.684-1.26 1.26 1.414 1.414 1.26-1.26 6.98-6.98 1.26-1.26-1.414-1.414-1.26 1.26-.684-.685a4.94 4.94 0 0 0-6.308-.56 5.226 5.226 0 0 0-6.486.722l-.025.025A5.2 5.2 0 0 0 3 6.25V17.5H1v2h2v1.919c0 .16.026.321.077.474l1.86 5.581A1.5 1.5 0 0 0 6.36 28.5h.807l-.73 2.5h2.084l.729-2.5h13.006l.75 2.5h2.088l-.75-2.5h1.295a1.5 1.5 0 0 0 1.424-1.026l1.86-5.581a1.5 1.5 0 0 0 .077-.474v-1.92h2v-2zM11.783 3.782a2.94 2.94 0 0 1 4.151 0l.685.685-4.152 4.152-.684-.685a2.94 2.94 0 0 1 0-4.152M27 21.337 25.28 26.5H6.72L5 21.337V19.5h22z"/></svg>