<svg xmlns="http://www.w3.org/2000/svg" width="32" height="32" fill="none"><path fill="#070707" d="M21.6 4.8a4 4 0 0 1 3.992 3.738l.008.262v4.08a4 4 0 0 1 3.19 3.647l.01.273v9.6a.8.8 0 0 1-1.587.144L27.2 26.4v-4H4.8v4a.8.8 0 0 1-1.587.144L3.2 26.4v-9.6a4 4 0 0 1 3.2-3.92V8.8a4 4 0 0 1 3.738-3.992L10.4 4.8zm3.2 9.6H7.2a2.4 2.4 0 0 0-2.389 2.168L4.8 16.8v4h22.4v-4a2.4 2.4 0 0 0-2.168-2.389zm-3.2-8H10.4a2.4 2.4 0 0 0-2.389 2.17L8 8.8v4h1.6V12a.8.8 0 0 1 .8-.8h4a.8.8 0 0 1 .8.8v.8h1.6V12a.8.8 0 0 1 .8-.8h4a.8.8 0 0 1 .8.8v.8H24v-4a2.4 2.4 0 0 0-2.168-2.389z"/></svg>