<svg width="36" height="36" viewBox="0 0 36 36" fill="none" xmlns="http://www.w3.org/2000/svg">
<rect width="36" height="36" rx="8" fill="#F15A29"></rect>
<path d="M26.4658 16.7475C26.4658 23.2021 19.8548 27.1786 18.4809 27.936C18.4048 27.978 18.3193 28 18.2324 28C18.1455 28 18.06 27.978 17.9839 27.936C16.609 27.1786 10 23.2021 10 16.7475C10 11.6019 13.0873 8 18.2329 8C23.3785 8 26.4658 11.6019 26.4658 16.7475Z" stroke="white" stroke-width="2" stroke-linecap="round" stroke-linejoin="round"></path>
<path d="M14.1172 16.2327C14.1172 17.3244 14.5509 18.3715 15.3229 19.1434C16.0949 19.9154 17.1419 20.3491 18.2336 20.3491C19.3254 20.3491 20.3724 19.9154 21.1444 19.1434C21.9164 18.3715 22.3501 17.3244 22.3501 16.2327C22.3501 15.1409 21.9164 14.0939 21.1444 13.3219C20.3724 12.5499 19.3254 12.1162 18.2336 12.1162C17.1419 12.1162 16.0949 12.5499 15.3229 13.3219C14.5509 14.0939 14.1172 15.1409 14.1172 16.2327V16.2327Z" stroke="white" stroke-width="2" stroke-linecap="round" stroke-linejoin="round"></path>
</svg>
