<svg width="35" height="35" viewBox="0 0 35 35" fill="none" xmlns="http://www.w3.org/2000/svg">
<path d="M17.4998 30.625C15.6579 29.0538 13.9505 27.3314 12.3957 25.4756C10.0623 22.6887 7.29151 18.5383 7.29151 14.5833C7.29049 12.5635 7.8887 10.5887 9.01043 8.90899C10.1322 7.22925 11.727 5.92004 13.5931 5.14703C15.4591 4.37402 17.5126 4.17198 19.4935 4.56646C21.4745 4.96094 23.2939 5.93422 24.7215 7.36312C25.672 8.30937 26.4253 9.43473 26.938 10.6741C27.4507 11.9134 27.7124 13.2421 27.7082 14.5833C27.7082 18.5383 24.9373 22.6887 22.604 25.4756C21.0491 27.3314 19.3418 29.0538 17.4998 30.625ZM17.4998 10.2083C16.3395 10.2083 15.2267 10.6693 14.4062 11.4897C13.5858 12.3102 13.1248 13.423 13.1248 14.5833C13.1248 15.7436 13.5858 16.8564 14.4062 17.6769C15.2267 18.4974 16.3395 18.9583 17.4998 18.9583C18.6602 18.9583 19.773 18.4974 20.5934 17.6769C21.4139 16.8564 21.8748 15.7436 21.8748 14.5833C21.8748 13.423 21.4139 12.3102 20.5934 11.4897C19.773 10.6693 18.6602 10.2083 17.4998 10.2083Z" fill="#070707"/>
</svg>
