<svg width="33" height="32" viewBox="0 0 33 32" fill="none" xmlns="http://www.w3.org/2000/svg">
<path d="M27.167 11.4282V5.33301M27.167 5.33301H21.0718M27.167 5.33301L14.9766 17.5235M14.9766 11.4282V17.5235M14.9766 17.5235H21.0718" stroke="#070707" stroke-width="1.1027" stroke-linecap="round" stroke-linejoin="round"/>
<path d="M18.0244 5.33301H8.88154C8.07326 5.33301 7.29809 5.6541 6.72655 6.22563C6.15501 6.79717 5.83392 7.57235 5.83392 8.38063V23.6187C5.83392 24.427 6.15501 25.2022 6.72655 25.7737C7.29809 26.3453 8.07326 26.6663 8.88154 26.6663H24.1196C24.9279 26.6663 25.7031 26.3453 26.2746 25.7737C26.8462 25.2022 27.1673 24.427 27.1673 23.6187V14.4759" stroke="#070707" stroke-width="1.1027" stroke-linecap="round" stroke-linejoin="round"/>
</svg>
