<svg width="32" height="32" viewBox="0 0 32 32" fill="none" xmlns="http://www.w3.org/2000/svg">
<path d="M21.6 4.80029C22.6156 4.80014 23.5932 5.18627 24.3345 5.88036C25.0758 6.57445 25.5254 7.52453 25.592 8.53789L25.6 8.80029V12.8803C26.4573 13.0556 27.2336 13.5072 27.8098 14.1658C28.386 14.8243 28.7305 15.6537 28.7904 16.5267L28.8 16.8003V26.4003C28.8004 26.6002 28.7259 26.793 28.5912 26.9407C28.4565 27.0885 28.2714 27.1804 28.0723 27.1985C27.8732 27.2166 27.6746 27.1594 27.5155 27.0383C27.3564 26.9173 27.2484 26.741 27.2128 26.5443L27.2 26.4003V22.4003H4.80001V26.4003C4.80038 26.6002 4.72589 26.793 4.5912 26.9407C4.45651 27.0885 4.27139 27.1804 4.0723 27.1985C3.8732 27.2166 3.67456 27.1594 3.51548 27.0383C3.35641 26.9173 3.24843 26.741 3.21281 26.5443L3.20001 26.4003V16.8003C3.19982 15.8782 3.51824 14.9843 4.10137 14.27C4.6845 13.5556 5.49652 13.0647 6.40001 12.8803V8.80029C6.39986 7.78474 6.78598 6.80716 7.48008 6.06582C8.17417 5.32449 9.12425 4.87491 10.1376 4.80829L10.4 4.80029H21.6ZM24.8 14.4003H7.20001C6.60365 14.4003 6.02865 14.6223 5.58704 15.0231C5.14543 15.4239 4.86886 15.9747 4.81121 16.5683L4.80001 16.8003V20.8003H27.2V16.8003C27.2 16.2039 26.978 15.6289 26.5772 15.1873C26.1764 14.7457 25.6256 14.4691 25.032 14.4115L24.8 14.4003ZM21.6 6.40029H10.4C9.8034 6.40032 9.22819 6.62256 8.78654 7.02368C8.3449 7.4248 8.06849 7.97604 8.01121 8.56989L8.00001 8.80029V12.8003H9.60001V12.0003C9.60001 11.7881 9.6843 11.5846 9.83433 11.4346C9.98436 11.2846 10.1878 11.2003 10.4 11.2003H14.4C14.6122 11.2003 14.8157 11.2846 14.9657 11.4346C15.1157 11.5846 15.2 11.7881 15.2 12.0003V12.8003H16.8V12.0003C16.8 11.7881 16.8843 11.5846 17.0343 11.4346C17.1844 11.2846 17.3878 11.2003 17.6 11.2003H21.6C21.8122 11.2003 22.0157 11.2846 22.1657 11.4346C22.3157 11.5846 22.4 11.7881 22.4 12.0003V12.8003H24V8.80029C24 8.20393 23.778 7.62893 23.3772 7.18732C22.9764 6.74571 22.4256 6.46914 21.832 6.41149L21.6 6.40029Z" fill="#070707"/>
</svg>
